<svg xmlns="http://www.w3.org/2000/svg" viewBox="0 0 178.42 118.13"><defs><style>.cls-1{fill:#efefef;}</style></defs><title>Risorsa 2LogoNUOVO</title><g id="Livello_2" data-name="Livello 2"><g id="Livello_1-2" data-name="Livello 1"><path class="cls-1" d="M178.14,35.39a28.54,28.54,0,0,0-9-25C162.4,4,152.34,0,140.68,0H92.74L83.47,43.48h-49L50,36.83,58,0H25.41L0,118.13H32.44l10-46.33H91.9L76,78.62l-8.43,39.5h57.57c23.34,0,44.42-15.85,47.08-35.41a28.41,28.41,0,0,0-7.83-23.9h0C171.8,52.57,176.92,44.35,178.14,35.39ZM139.21,83.33c-1,6.45-7.48,11.66-14.52,11.66H100.88l2.66-11.66,2.63-11.66H128.9C135.94,71.67,140.2,76.88,139.21,83.33Zm10.43-47.81c-1,6.45-7.48,11.66-14.52,11.66H111.31L114,35.52l2.63-11.66h22.73C146.37,23.86,150.63,29.07,149.64,35.52Z"/></g></g></svg>